<svg width="299" height="384" viewBox="0 0 299 384" fill="none" xmlns="http://www.w3.org/2000/svg">
<g opacity="0.35">
<path d="M142.674 61.1237C144.663 57.484 150.212 59.1805 149.826 63.3101L143.64 129.401C143.355 132.445 146.586 134.572 149.27 133.108L207.539 101.312C211.18 99.3256 214.931 103.753 212.373 107.018L171.438 159.273C169.552 161.68 171.12 165.216 174.169 165.435L240.379 170.189C244.515 170.486 245.277 176.239 241.36 177.603L178.673 199.431C175.785 200.436 175.192 204.259 177.639 206.092L230.767 245.887C234.087 248.374 231.618 253.625 227.586 252.654L163.048 237.126C160.075 236.41 157.51 239.306 158.577 242.171L181.757 304.372C183.205 308.258 178.289 311.341 175.421 308.344L129.524 260.389C127.41 258.18 123.687 259.229 123.036 262.216L108.907 327.075C108.024 331.127 102.222 331.063 101.43 326.992L88.7449 261.836C88.1606 258.834 84.4614 257.703 82.2988 259.865L35.3478 306.789C32.4142 309.721 27.5679 306.53 29.1022 302.676L53.6573 241.005C54.7884 238.165 52.2879 235.213 49.3 235.862L-15.5666 249.954C-19.6197 250.834 -21.9714 245.529 -18.5974 243.117L35.4015 204.512C37.8888 202.734 37.3808 198.899 34.5164 197.83L-27.6712 174.615C-31.5569 173.164 -30.6674 167.43 -26.5249 167.225L39.7735 163.942C42.8273 163.791 44.4732 160.29 42.6416 157.842L2.87712 104.691C0.392513 101.37 4.24083 97.0271 7.83665 99.0942L65.3852 132.176C68.036 133.7 71.3131 131.645 71.0959 128.595L66.3795 62.3833C66.0849 58.2461 71.6702 56.6733 73.5776 60.3563L104.105 119.3C105.511 122.015 109.379 122.058 110.845 119.374L142.674 61.1237Z" fill="white" stroke="#FFCF2D" stroke-width="6"/>
</g>
</svg>
