<svg width="155" height="155" viewBox="0 0 155 155" fill="none" xmlns="http://www.w3.org/2000/svg">
<g opacity="0.35">
<path d="M73.7049 34.7136C74.2009 30.1765 80.7991 30.1765 81.2951 34.7136L82.45 45.2777C82.8285 48.7399 87.2654 49.9287 89.3243 47.1196L95.6066 38.5483C98.3047 34.8671 104.019 38.1662 102.18 42.3434L97.898 52.0697C96.4947 55.2573 99.7427 58.5053 102.93 57.102L112.657 52.8201C116.834 50.9812 120.133 56.6953 116.452 59.3934L107.88 65.6757C105.071 67.7346 106.26 72.1715 109.722 72.55L120.286 73.7049C124.824 74.2009 124.823 80.7991 120.286 81.2951L109.722 82.45C106.26 82.8285 105.071 87.2654 107.88 89.3243L116.452 95.6066C120.133 98.3047 116.834 104.019 112.657 102.18L102.93 97.898C99.7427 96.4947 96.4947 99.7427 97.898 102.93L102.18 112.657C104.019 116.834 98.3047 120.133 95.6066 116.452L89.3243 107.88C87.2654 105.071 82.8285 106.26 82.45 109.722L81.2951 120.286C80.7991 124.824 74.2009 124.823 73.7049 120.286L72.55 109.722C72.1715 106.26 67.7346 105.071 65.6757 107.88L59.3934 116.452C56.6953 120.133 50.9812 116.834 52.8201 112.657L57.102 102.93C58.5053 99.7427 55.2573 96.4947 52.0697 97.898L42.3434 102.18C38.1662 104.019 34.8671 98.3047 38.5483 95.6066L47.1197 89.3243C49.9288 87.2654 48.7399 82.8285 45.2777 82.45L34.7136 81.2951C30.1765 80.7991 30.1765 74.2009 34.7136 73.7049L45.2777 72.55C48.7399 72.1715 49.9287 67.7346 47.1196 65.6757L38.5483 59.3934C34.8671 56.6953 38.1662 50.9812 42.3434 52.8201L52.0697 57.102C55.2573 58.5053 58.5053 55.2573 57.102 52.0697L52.8201 42.3434C50.9812 38.1662 56.6953 34.8671 59.3934 38.5483L65.6757 47.1197C67.7346 49.9288 72.1715 48.7399 72.55 45.2777L73.7049 34.7136Z" fill="#F29325" stroke="#F29325" stroke-width="5"/>
</g>
</svg>
