<svg width="172" height="172" viewBox="0 0 172 172" fill="none" xmlns="http://www.w3.org/2000/svg">
<g opacity="0.35">
<path d="M81.9806 18.4636C82.8073 14.3843 88.6372 14.3843 89.4639 18.4636L97.7222 59.2152C98.1781 61.4648 100.502 62.8065 102.678 62.0764L142.099 48.8526C146.045 47.5288 148.96 52.5777 145.841 55.3333L114.678 82.861C112.958 84.3806 112.958 87.0638 114.678 88.5835L145.841 116.111C148.96 118.867 146.045 123.916 142.099 122.592L102.678 109.368C100.502 108.638 98.1781 109.98 97.7222 112.229L89.4639 152.981C88.6372 157.06 82.8073 157.06 81.9806 152.981L73.7223 112.229C73.2664 109.98 70.9426 108.638 68.7664 109.368L29.3454 122.592C25.3993 123.916 22.4843 118.867 25.6037 116.111L56.7665 88.5835C58.4868 87.0638 58.4868 84.3806 56.7665 82.861L25.6037 55.3333C22.4843 52.5777 25.3993 47.5288 29.3454 48.8526L68.7664 62.0764C70.9426 62.8065 73.2664 61.4648 73.7223 59.2152L81.9806 18.4636Z" fill="white" stroke="#025259" stroke-opacity="0.28" stroke-width="5"/>
</g>
</svg>
